HIERARCHY
ROOT Hips
{
	OFFSET 0.00000 0.00000 0.00000
	CHANNELS 6 Xposition Yposition Zposition Zrotation Yrotation Xrotation 
	JOINT LHipJoint
	{
		OFFSET 0 0 0
		CHANNELS 3 Zrotation Yrotation Xrotation
		JOINT LeftUpLeg
		{
			OFFSET 3.13874 -1.57224 1.49786
			CHANNELS 3 Zrotation Yrotation Xrotation
			JOINT LeftLeg
			{
				OFFSET 2.10955 -5.79594 0.00000
				CHANNELS 3 Zrotation Yrotation Xrotation
				JOINT LeftFoot
				{
					OFFSET 2.41843 -6.64458 0.00000
					CHANNELS 3 Zrotation Yrotation Xrotation
					JOINT LeftToeBase
					{
						OFFSET 0.04713 -0.12948 1.66229
						CHANNELS 3 Zrotation Yrotation Xrotation
						End Site
						{
							OFFSET 0.00000 -0.00000 0.85167
						}
					}
				}
			}
		}
	}
	JOINT RHipJoint
	{
		OFFSET 0 0 0
		CHANNELS 3 Zrotation Yrotation Xrotation
		JOINT RightUpLeg
		{
			OFFSET -3.13988 -1.57224 1.49786
			CHANNELS 3 Zrotation Yrotation Xrotation
			JOINT RightLeg
			{
				OFFSET -2.15006 -5.90725 0.00000
				CHANNELS 3 Zrotation Yrotation Xrotation
				JOINT RightFoot
				{
					OFFSET -2.34496 -6.44273 0.00000
					CHANNELS 3 Zrotation Yrotation Xrotation
					JOINT RightToeBase
					{
						OFFSET -0.08699 -0.23900 1.55223
						CHANNELS 3 Zrotation Yrotation Xrotation
						End Site
						{
							OFFSET -0.00000 -0.00000 0.80281
						}
					}
				}
			}
		}
	}
	JOINT LowerBack
	{
		OFFSET 0 0 0
		CHANNELS 3 Zrotation Yrotation Xrotation
		JOINT Spine
		{
			OFFSET 0.01292 1.96517 -0.16495
			CHANNELS 3 Zrotation Yrotation Xrotation
			JOINT Spine1
			{
				OFFSET 0.02122 1.88666 0.19706
				CHANNELS 3 Zrotation Yrotation Xrotation
				JOINT Neck
				{
					OFFSET 0 0 0
					CHANNELS 3 Zrotation Yrotation Xrotation
					JOINT Neck1
					{
						OFFSET -0.01683 1.81591 0.07903
						CHANNELS 3 Zrotation Yrotation Xrotation
						JOINT Head
						{
							OFFSET 0.00815 1.74013 -0.47700
							CHANNELS 3 Zrotation Yrotation Xrotation
							End Site
							{
								OFFSET -0.00204 1.83225 -0.16933
							}
						}
					}
				}
				JOINT LeftShoulder
				{
					OFFSET 0 0 0
					CHANNELS 3 Zrotation Yrotation Xrotation
					JOINT LeftArm
					{
						OFFSET 3.38482 1.41533 0.19802
						CHANNELS 3 Zrotation Yrotation Xrotation
						JOINT LeftForeArm
						{
							OFFSET 4.32712 -0.00000 0.00000
							CHANNELS 3 Zrotation Yrotation Xrotation
							JOINT LeftHand
							{
								OFFSET 3.28587 -0.00000 -0.00000
								CHANNELS 3 Zrotation Yrotation Xrotation
								JOINT LeftFingerBase
								{
									OFFSET 0 0 0
									CHANNELS 3 Zrotation Yrotation Xrotation
									JOINT LeftHandIndex1
									{
										OFFSET 0.43316 -0.00000 -0.00000
										CHANNELS 3 Zrotation Yrotation Xrotation
										End Site
										{
											OFFSET 0.34922 -0.00000 -0.00000
										}
									}
								}
								JOINT LThumb
								{
									OFFSET 0 0 0
									CHANNELS 3 Zrotation Yrotation Xrotation
									End Site
									{
										OFFSET 0.35456 -0.00000 0.35456
									}
								}
							}
						}
					}
				}
				JOINT RightShoulder
				{
					OFFSET 0 0 0
					CHANNELS 3 Zrotation Yrotation Xrotation
					JOINT RightArm
					{
						OFFSET -3.09725 1.62858 -0.14144
						CHANNELS 3 Zrotation Yrotation Xrotation
						JOINT RightForeArm
						{
							OFFSET -4.29104 -0.00000 0.00000
							CHANNELS 3 Zrotation Yrotation Xrotation
							JOINT RightHand
							{
								OFFSET -3.22720 -0.00000 -0.00000
								CHANNELS 3 Zrotation Yrotation Xrotation
								JOINT RightFingerBase
								{
									OFFSET 0 0 0
									CHANNELS 3 Zrotation Yrotation Xrotation
									JOINT RightHandIndex1
									{
										OFFSET -0.54362 -0.00000 -0.00000
										CHANNELS 3 Zrotation Yrotation Xrotation
										End Site
										{
											OFFSET -0.43828 -0.00000 -0.00000
										}
									}
								}
								JOINT RThumb
								{
									OFFSET 0 0 0
									CHANNELS 3 Zrotation Yrotation Xrotation
									End Site
									{
										OFFSET -0.44497 -0.00000 0.44497
									}
								}
							}
						}
					}
				}
			}
		}
	}
}
MOTION
Frames: 5
Frame Time: .0083333
-34.1356 16.2757 0.5159 0 0 0 0 0 0 -21 0 0 0 0 0 0 0 0 0 0 0 0 0 0 21 0 0 0 0 0 0 0 0 0 0 0 0 0 0 0 0 0 0 0 0 0 0 -16 0 0 21 0 0 11 0 0 0 -8 0 0 0 0 0 0 0 0 0 0 0 0 0 0 0 0 0 0 0 0 8 0 0 0 0 0 0 0 0 0 0 0 0 0 0 0 0 0
-34.1356 16.2757 0.5159 -151.5590 -82.0794 160.6140 0.0000 0.0000 0.0000 -30.1335 -28.0997 5.1425 0.0509 1.4555 4.0030 1.8089 -0.3963 -25.3376 3.0756 -10.8164 -31.6633 0.0000 0.0000 0.0000 33.0275 20.1050 5.6843 -0.0179 0.8638 -2.3742 0.4905 -15.9865 -16.8154 -0.9776 6.2942 -17.6403 8.3715 1.8837 8.4744 -1.8442 3.3811 -11.0975 -7.5330 0.1938 -16.8332 -17.7666 -14.1714 -5.1468 10.4181 -22.1452 27.1921 3.3873 -11.1876 13.1786 0.0000 -0.0000 0.0000 -75.0755 20.2651 27.2840 16.1133 -25.6740 -3.6949 -0.0000 -0.0000 4.7012 26.3409 26.5293 12.4701 -7.1250 0.0000 -0.0000 -4.2178 59.0507 -1.4498 0.0000 -0.0000 0.0000 78.4161 -19.2661 41.0236 -17.1905 27.1083 -4.1738 0.0000 -0.0000 -8.9178 -26.0310 -19.4810 9.2511 7.1250 -0.0000 -0.0000 2.3296 -51.4539 -0.3705
-34.1034 16.2739 0.5245 -151.3220 -81.9143 160.3380 0.0000 0.0000 0.0000 -29.6483 -27.3923 3.8633 0.0817 1.8432 5.0726 1.7338 -2.2388 -24.2928 2.3828 -9.6216 -27.7597 0.0000 0.0000 0.0000 32.8779 19.6629 4.6912 -0.0069 0.5376 -1.4773 0.4547 -15.3656 -16.1161 -1.0930 6.6438 -18.6643 8.3613 1.8797 8.7276 -1.8018 3.4098 -11.0187 -7.4985 0.2133 -16.8976 -17.4084 -14.0270 -5.7128 10.2216 -21.8539 27.4823 3.2825 -11.0132 13.2860 0.0000 0.0000 0.0000 -75.0587 20.1729 27.4102 16.2186 -25.8161 -3.7406 -0.0000 -0.0000 4.6130 25.7678 26.7638 12.2640 -7.1250 0.0000 -0.0000 -4.9660 59.1614 -1.7209 0.0000 0.0000 0.0000 78.4256 -19.1611 40.8152 -17.3210 27.2791 -4.2334 0.0000 -0.0000 -8.8651 -26.0208 -19.5183 9.2637 7.1250 -0.0000 -0.0000 2.3485 -51.4923 -0.3757
-34.0672 16.2728 0.5335 -151.7720 -81.7390 160.8030 0.0000 0.0000 0.0000 -29.2062 -26.7822 2.5308 0.1198 2.2312 6.1452 1.6372 -3.7101 -23.2834 1.8506 -8.5476 -24.3902 0.0000 0.0000 0.0000 32.6079 19.2923 3.5536 -0.0007 0.1651 -0.4537 0.4135 -14.7094 -15.4619 -1.1881 6.9171 -19.4699 8.2341 1.8955 8.9451 -1.7801 3.4385 -10.9402 -7.4194 0.2470 -16.9402 -17.0167 -13.8538 -6.3758 10.0391 -21.5234 27.8162 3.1787 -10.8120 13.4253 0.0000 0.0000 0.0000 -75.0150 20.0577 27.6174 16.3269 -25.9619 -3.7880 -0.0000 -0.0000 4.5179 25.4800 26.9170 12.1740 -7.1250 0.0000 -0.0000 -5.3587 59.2535 -1.8692 0.0000 0.0000 0.0000 78.4093 -19.0241 40.6760 -17.4593 27.4593 -4.2970 0.0000 -0.0000 -8.8624 -26.0825 -19.5227 9.2906 7.1250 -0.0000 -0.0000 2.2871 -51.5082 -0.3668
-34.0254 16.2725 0.5448 -152.6730 -81.5485 161.7710 0.0000 0.0000 0.0000 -28.7893 -26.1776 1.1287 0.1635 2.6048 7.1804 1.5205 -4.9524 -22.2282 1.4411 -7.5893 -21.4734 0.0000 0.0000 0.0000 32.2189 18.8935 2.1840 -0.0018 -0.2769 0.7609 0.3600 -13.9250 -14.8017 -1.2730 7.1510 -20.1635 8.0488 1.9223 9.1854 -1.7802 3.4702 -10.8866 -7.3364 0.2825 -17.0301 -16.5897 -13.6432 -7.1257 9.8632 -21.1487 28.2148 3.0750 -10.5838 13.6028 -0.0000 0.0000 0.0000 -74.9297 19.9679 27.8853 16.4513 -26.1287 -3.8425 -0.0000 -0.0000 4.4029 25.3656 27.0156 12.1532 -7.1250 0.0000 -0.0000 -5.5322 59.3293 -1.9400 -0.0000 0.0000 0.0000 78.3751 -18.8934 40.6135 -17.6012 27.6435 -4.3626 0.0000 -0.0000 -8.9037 -26.1736 -19.5094 9.3213 7.1250 -0.0000 -0.0000 2.1918 -51.5101 -0.3516
